# Blender 3.6.1
# www.blender.org
mtllib Mesa.mtl
o 1
v 0.189941 0.000000 -0.229969
v 0.182635 0.000000 -0.229969
v 0.182635 0.000000 -0.222039
v 0.189941 0.000000 -0.222039
v 0.182635 0.025658 -0.229969
v 0.189941 0.325000 -0.229969
v 0.182635 0.034211 -0.229969
v -0.182679 0.025658 -0.229969
v 0.182635 0.025658 -0.222039
v -0.182679 0.025658 -0.222039
v 0.189941 0.025658 -0.222039
v 0.189941 0.034211 -0.222039
v 0.189941 0.316447 -0.222039
v 0.189941 0.316447 0.222091
v 0.189941 0.325000 0.230031
v 0.189941 0.000000 0.222091
v 0.189941 0.000000 0.230031
v 0.182635 0.000000 0.230031
v 0.182635 0.025658 0.230031
v 0.182635 0.034211 0.230031
v 0.182635 0.316447 0.230031
v -0.182679 0.316447 0.230031
v -0.189986 0.325000 0.230031
v -0.182679 0.034211 0.230031
v -0.182679 0.025658 0.230031
v -0.189986 0.000000 0.230031
v -0.182679 0.000000 0.230031
v -0.182679 0.000000 0.222091
v -0.189986 0.000000 0.222091
v -0.189986 0.025658 0.222091
v -0.182679 0.025658 0.222091
v -0.189986 0.034211 0.222091
v -0.189986 0.316447 0.222091
v -0.189986 0.325000 -0.229969
v -0.182679 0.325000 0.222091
v 0.182635 0.325000 -0.222039
v -0.182679 0.325000 -0.222039
v -0.182679 0.316447 0.222091
v -0.182679 0.316447 -0.222039
v 0.182635 0.316447 0.222091
v 0.182635 0.316447 -0.222039
v -0.182679 0.316447 -0.229969
v 0.182635 0.316447 -0.229969
v -0.182679 0.034211 -0.222039
v -0.182679 0.034211 -0.229969
v -0.189986 0.034211 -0.222039
v -0.189986 0.316447 -0.222039
v -0.182679 0.034211 0.222091
v 0.182635 0.034211 0.222091
v 0.189941 0.034211 0.222091
v 0.189941 0.025658 0.222091
v 0.182635 0.000000 0.222091
v 0.182635 0.025658 0.222091
v 0.182635 0.034211 -0.222039
v -0.182679 0.000000 -0.229969
v -0.189986 0.000000 -0.229969
v -0.189986 0.000000 -0.222039
v -0.182679 0.000000 -0.222039
v -0.189986 0.025658 -0.222039
v 0.182635 0.325000 0.222091
vn -0.0000 1.0000 -0.0000
vn -0.0000 -0.0000 -1.0000
vn 0.0001 -0.0000 -1.0000
vn -0.0000 -1.0000 -0.0000
vn -1.0000 -0.0000 -0.0000
vn -0.0000 -0.0000 1.0000
vn 1.0000 -0.0000 -0.0000
vn 0.0001 -0.0000 1.0000
vn -0.0001 -0.0000 1.0000
vn -0.0000 1.0000 -0.0001
vn -0.0001 1.0000 -0.0000
vn 0.0001 -1.0000 -0.0000
vt 0.504360 0.021555
vt 0.510648 0.021555
vt 0.510648 0.028381
vt 0.504360 0.028381
vt 0.664984 0.016787
vt 0.687067 0.010499
vt 0.687067 0.016787
vt 0.407345 0.010499
vt 0.657623 0.016787
vt 0.664984 0.331207
vt 0.011801 0.430660
vt 0.011801 0.423835
vt 0.326221 0.423835
vt 0.326221 0.430660
vt 0.979573 0.012708
vt 0.986399 0.012708
vt 0.986399 0.034791
vt 0.979573 0.034791
vt 0.996000 0.034791
vt 0.989711 0.034791
vt 0.989711 0.012708
vt 0.996000 0.012708
vt 0.001658 0.608377
vt 0.008484 0.586294
vt 0.008484 0.608377
vt 0.008484 0.578933
vt 0.008483 0.336016
vt 0.001658 0.328655
vt 0.390739 0.336016
vt 0.397573 0.328655
vt 0.390739 0.608377
vt 0.397573 0.608377
vt 0.718622 0.328655
vt 0.998344 0.322367
vt 0.998344 0.328655
vt 0.976261 0.322367
vt 0.968900 0.322367
vt 0.725983 0.322367
vt 0.725983 0.007947
vt 0.718622 0.001658
vt 0.968900 0.007947
vt 0.976261 0.007947
vt 0.998344 0.001658
vt 0.998344 0.007947
vt 0.494213 0.027844
vt 0.494213 0.021556
vt 0.501047 0.021556
vt 0.501047 0.027844
vt 0.465498 0.021549
vt 0.465498 0.027838
vt 0.443414 0.027838
vt 0.443414 0.021549
vt 0.962038 0.012820
vt 0.390740 0.611710
vt 0.390740 0.884071
vt 0.390740 0.641155
vt 0.397574 0.611710
vt 0.397574 0.891433
vt 0.001659 0.891433
vt 0.397573 0.001658
vt 0.390739 0.007947
vt 0.001658 0.001658
vt 0.397573 0.328655
vt 0.390739 0.322367
vt 0.008483 0.322367
vt 0.001658 0.328655
vt 0.008483 0.007947
vt 0.783144 0.775272
vt 0.783144 0.782633
vt 0.400889 0.782633
vt 0.400889 0.775272
vt 0.708426 0.324919
vt 0.701065 0.324919
vt 0.701065 0.010499
vt 0.708426 0.010499
vt 0.973975 0.333208
vt 0.981337 0.333208
vt 0.981337 0.715464
vt 0.973976 0.715464
vt 0.326224 0.390676
vt 0.326224 0.398037
vt 0.011803 0.398037
vt 0.011803 0.390676
vt 0.326221 0.434887
vt 0.326221 0.441712
vt 0.011801 0.441712
vt 0.011801 0.434887
vt 0.849126 0.012709
vt 0.849126 0.255625
vt 0.842301 0.255625
vt 0.842301 0.012709
vt 0.868864 0.255625
vt 0.862575 0.255625
vt 0.862575 0.012709
vt 0.868864 0.012709
vt 0.783144 0.830532
vt 0.783144 0.836821
vt 0.400889 0.836821
vt 0.400889 0.830532
vt 0.878468 0.012709
vt 0.878468 0.255625
vt 0.872179 0.255625
vt 0.872179 0.012709
vt 0.838990 0.012706
vt 0.838990 0.255623
vt 0.832156 0.255623
vt 0.832156 0.012706
vt 0.326223 0.445936
vt 0.326223 0.452770
vt 0.011803 0.452770
vt 0.011803 0.445936
vt 0.822007 0.255623
vt 0.822007 0.012706
vt 0.828840 0.012706
vt 0.828840 0.255623
vt 0.888072 0.012709
vt 0.888072 0.255625
vt 0.881783 0.255625
vt 0.881783 0.012709
vt 0.962038 0.017241
vt 0.490894 0.021550
vt 0.490894 0.027839
vt 0.468811 0.027839
vt 0.468811 0.021550
vt 0.524116 0.027844
vt 0.524116 0.021556
vt 0.530949 0.021556
vt 0.530949 0.027844
vt 0.926384 0.019543
vt 0.926384 0.012709
vt 0.948467 0.012709
vt 0.948467 0.019543
vt 0.011803 0.419619
vt 0.011803 0.412785
vt 0.326224 0.412785
vt 0.326224 0.419619
vt 0.923070 0.012713
vt 0.923070 0.019547
vt 0.900987 0.019547
vt 0.900987 0.012713
vt 0.690387 0.010499
vt 0.697748 0.010499
vt 0.697748 0.324919
vt 0.690387 0.324919
vt 0.963300 0.333208
vt 0.970661 0.333208
vt 0.970661 0.715464
vt 0.963300 0.715464
vt 0.326224 0.401729
vt 0.326224 0.409090
vt 0.011803 0.409090
vt 0.011803 0.401729
vt 0.326221 0.468035
vt 0.326221 0.474860
vt 0.011801 0.474860
vt 0.011801 0.468035
vt 0.852434 0.255625
vt 0.852434 0.012709
vt 0.859259 0.012709
vt 0.859259 0.255625
vt 0.414706 0.016787
vt 0.414706 0.331207
vt 0.407345 0.337496
vt 0.657623 0.331207
vt 0.687067 0.331207
vt 0.687067 0.337496
vt 0.513970 0.027844
vt 0.513970 0.021555
vt 0.520795 0.021555
vt 0.520795 0.027844
vt 0.008484 0.611710
vt 0.001659 0.611710
vt 0.008484 0.633794
vt 0.008484 0.641155
vt 0.008484 0.884071
vt 0.783144 0.808429
vt 0.783144 0.814718
vt 0.400888 0.814718
vt 0.400888 0.808429
vt 0.390740 0.633794
vt 0.783144 0.841584
vt 0.783144 0.847873
vt 0.400889 0.847873
vt 0.400889 0.841584
vt 0.440101 0.021550
vt 0.440101 0.027839
vt 0.418018 0.027839
vt 0.418018 0.021550
vt 0.958609 0.034791
vt 0.951783 0.034791
vt 0.951783 0.012708
vt 0.958609 0.012708
vt 0.992012 0.715464
vt 0.984651 0.715464
vt 0.984651 0.333208
vt 0.992012 0.333208
vt 0.891383 0.012709
vt 0.897672 0.012709
vt 0.897672 0.255625
vt 0.891383 0.255625
vt 0.400888 0.792614
vt 0.400888 0.786326
vt 0.783144 0.786326
vt 0.783144 0.792614
vt 0.400889 0.803666
vt 0.400889 0.797378
vt 0.783144 0.797378
vt 0.783144 0.803666
vt 0.390739 0.578933
vt 0.390739 0.586294
vt 0.400888 0.825769
vt 0.400888 0.819481
vt 0.783144 0.819481
vt 0.783144 0.825769
vt 0.326221 0.456986
vt 0.326221 0.463820
vt 0.011801 0.463820
vt 0.011801 0.456986
s 0
usemtl M_0012_Bisque
f 1/1/1 2/2/1 3/3/1 4/4/1
f 5/5/2 1/6/2 2/7/2
f 1/6/2 5/5/2 6/8/2
f 6/8/3 5/5/3 7/9/3
f 7/9/2 5/5/2 8/10/2
f 5/11/4 9/12/4 10/13/4 8/14/4
f 2/15/5 3/16/5 9/17/5 5/18/5
f 3/19/6 4/20/6 11/21/6 9/22/6
f 1/23/7 11/24/7 4/25/7
f 11/24/7 1/23/7 12/26/7
f 12/26/7 1/23/7 13/27/7
f 6/28/7 13/27/7 1/23/7
f 6/28/7 14/29/7 13/27/7
f 15/30/7 14/29/7 6/28/7
f 15/30/7 16/31/7 14/29/7
f 16/31/7 15/30/7 17/32/7
f 15/33/6 18/34/6 17/35/6
f 18/34/8 15/33/8 19/36/8
f 19/36/6 15/33/6 20/37/6
f 20/37/6 15/33/6 21/38/6
f 21/38/6 15/33/6 22/39/6
f 23/40/6 22/39/6 15/33/6
f 23/40/6 24/41/6 22/39/6
f 23/40/9 25/42/9 24/41/9
f 26/43/6 25/42/6 23/40/6
f 25/42/6 26/43/6 27/44/6
f 28/45/1 29/46/1 26/47/1 27/48/1
f 28/49/2 29/50/2 30/51/2 31/52/2
f 29/53/1 32/53/10 30/53/1
f 29/54/6 33/55/6 32/56/6
f 33/55/5 29/54/5 26/57/5
f 23/58/5 33/55/5 26/57/5
f 33/55/5 23/58/5 34/59/5
f 23/60/1 35/61/1 34/62/1
f 35/61/1 23/60/1 15/63/1
f 35/61/1 15/63/1 60/64/1
f 60/64/1 15/63/1 36/65/1
f 6/66/1 36/65/1 15/63/1
f 6/66/1 37/67/1 36/65/1
f 34/62/1 37/67/1 6/66/1
f 37/67/1 34/62/1 35/61/1
f 35/68/7 38/69/7 39/70/7 37/71/7
f 38/72/2 35/73/2 60/74/2 40/75/2
f 36/76/5 41/77/5 40/78/5 60/79/5
f 41/80/6 36/81/6 37/82/6 39/83/6
f 39/84/4 42/85/4 43/86/4 41/87/4
f 39/88/7 44/89/7 45/90/7 42/91/7
f 46/92/6 44/93/6 39/94/6 47/95/6
f 32/96/1 48/97/1 44/98/1 46/99/1
f 38/100/2 48/101/2 32/102/2 33/103/2
f 22/104/7 24/105/7 48/106/7 38/107/7
f 20/108/1 49/109/1 48/110/1 24/111/1
f 40/112/5 49/113/5 20/114/5 21/115/5
f 14/116/2 50/117/2 49/118/2 40/119/2
f 14/120/7 51/120/7 50/120/7
f 14/120/11 16/120/12 51/120/4
f 16/121/2 52/122/2 53/123/2 51/124/2
f 16/125/1 52/126/1 18/127/1 17/128/1
f 52/129/5 18/130/5 19/131/5 53/132/5
f 53/133/4 19/134/4 25/135/4 31/136/4
f 24/41/6 25/42/6 19/36/6
f 24/41/6 19/36/6 20/37/6
f 27/137/7 28/138/7 31/139/7 25/140/7
f 49/141/2 53/142/2 31/143/2 48/144/2
f 54/145/5 9/146/5 53/147/5 49/148/5
f 9/149/6 54/150/6 44/151/6 10/152/6
f 54/153/1 7/154/1 45/155/1 44/156/1
f 43/157/5 7/158/5 54/159/5 41/160/5
f 6/8/2 7/9/2 43/161/2
f 6/8/2 43/161/2 42/162/2
f 42/162/2 34/163/2 6/8/2
f 45/164/2 34/163/2 42/162/2
f 8/10/2 34/163/2 45/164/2
f 55/165/2 34/163/2 8/10/2
f 34/163/2 55/165/2 56/166/2
f 55/167/1 56/168/1 57/169/1 58/170/1
f 57/171/5 34/59/5 56/172/5
f 59/173/5 34/59/5 57/171/5
f 46/174/5 34/59/5 59/173/5
f 47/175/5 34/59/5 46/174/5
f 33/55/5 34/59/5 47/175/5
f 38/176/4 33/177/4 47/178/4 39/179/4
f 30/180/5 46/174/5 59/173/5
f 46/174/5 30/180/5 32/56/5
f 31/181/4 30/182/4 59/183/4 10/184/4
f 57/185/6 58/186/6 10/187/6 59/188/6
f 58/189/7 55/190/7 8/191/7 10/192/7
f 48/193/7 31/194/7 10/195/7 44/196/7
f 7/9/2 8/10/2 45/164/2
f 13/197/6 41/198/6 54/199/6 12/200/6
f 41/201/4 13/202/4 14/203/4 40/204/4
f 12/205/1 54/206/1 49/207/1 50/208/1
f 50/209/7 11/24/7 12/26/7
f 11/24/7 50/209/7 51/210/7
f 9/211/4 11/212/4 51/213/4 53/214/4
f 22/215/4 38/216/4 40/217/4 21/218/4
o 2
v -0.182910 0.325000 0.222372
v 0.182867 0.325000 -0.222321
v -0.182910 0.325000 -0.222321
v 0.182867 0.325000 0.222372
v -0.182910 0.380000 0.222372
v -0.182910 0.380000 -0.222321
v 0.182867 0.380000 0.222372
v 0.182867 0.380000 -0.222321
v -0.179253 0.380000 -0.218356
v -0.179253 0.380000 0.218407
v 0.179209 0.380000 0.218407
v 0.179209 0.380000 -0.218356
v -0.179253 0.330000 -0.218356
v 0.179209 0.330000 -0.218356
v -0.179253 0.330000 0.218407
v 0.179209 0.330000 0.218407
vn -0.0000 -1.0000 -0.0000
vn -1.0000 -0.0000 -0.0000
vn -0.0000 -0.0000 1.0000
vn 1.0000 -0.0000 -0.0000
vn -0.0000 -0.0000 -1.0000
vn -0.0000 1.0000 -0.0000
vt 0.400884 0.388467
vt 0.715304 0.388467
vt 0.715304 0.770722
vt 0.400884 0.770722
vt 0.816626 0.715464
vt 0.769289 0.715464
vt 0.769289 0.333208
vt 0.816626 0.333208
vt 0.959984 0.647629
vt 0.912646 0.647629
vt 0.912646 0.333209
vt 0.959984 0.333209
vt 0.718627 0.333208
vt 0.765965 0.333208
vt 0.765965 0.715464
vt 0.718627 0.715464
vt 0.326224 0.339837
vt 0.326224 0.387175
vt 0.011804 0.387175
vt 0.011804 0.339838
vt 0.715305 0.001658
vt 0.712161 0.005066
vt 0.400885 0.001658
vt 0.712161 0.380505
vt 0.715305 0.383914
vt 0.400885 0.383914
vt 0.404029 0.380505
vt 0.404029 0.005066
vt 0.772333 0.012709
vt 0.772333 0.320841
vt 0.729299 0.320841
vt 0.729299 0.012709
vt 0.011801 0.012714
vt 0.387240 0.012714
vt 0.387240 0.320846
vt 0.011801 0.320846
vt 0.819948 0.708645
vt 0.819948 0.333206
vt 0.862982 0.333206
vt 0.862982 0.708645
vt 0.818682 0.012709
vt 0.818682 0.320841
vt 0.775648 0.320841
vt 0.775648 0.012709
vt 0.909333 0.333206
vt 0.909333 0.708645
vt 0.866299 0.708645
vt 0.866299 0.333206
s 0
usemtl M_0012_Bisque
f 63/219/13 62/220/13 64/221/13 61/222/13
f 61/223/14 65/224/14 66/225/14 63/226/14
f 64/227/15 67/228/15 65/229/15 61/230/15
f 62/231/16 68/232/16 67/233/16 64/234/16
f 63/235/17 66/236/17 68/237/17 62/238/17
f 66/239/18 69/240/18 68/241/18
f 69/240/18 66/239/18 70/242/18
f 65/243/18 70/242/18 66/239/18
f 70/242/18 65/243/18 67/244/18
f 70/242/18 67/244/18 71/245/18
f 71/245/18 67/244/18 72/246/18
f 68/241/18 72/246/18 67/244/18
f 68/241/18 69/240/18 72/246/18
f 73/247/15 74/248/15 72/249/15 69/250/15
f 73/251/18 75/252/18 76/253/18 74/254/18
f 75/255/16 73/256/16 69/257/16 70/258/16
f 76/259/17 75/260/17 70/261/17 71/262/17
f 74/263/14 76/264/14 71/265/14 72/266/14
